<svg width="48" height="45" viewBox="0 0 48 45" fill="none" xmlns="http://www.w3.org/2000/svg">
<rect x="7.62939e-06" y="0.556641" width="48" height="44.0985" fill="#323238"/>
<path d="M36.1462 22.6731C36.1462 16.5466 30.7416 11.5812 24.0731 11.5812C17.4046 11.5812 12 16.5466 12 22.6731C12 28.2103 16.4142 32.7987 22.1867 33.6306V25.8793H19.1212V22.6731H22.1867V20.2294C22.1867 17.4499 23.9882 15.914 26.7471 15.914C28.0676 15.914 29.4494 16.1306 29.4494 16.1306V18.8602H27.9261C26.4264 18.8602 25.9595 19.716 25.9595 20.5933V22.6731H29.3079L28.7727 25.8793H25.9595V33.6306C31.732 32.7987 36.1462 28.2103 36.1462 22.6731Z" fill="white"/>
</svg>
