<svg width="48" height="45" viewBox="0 0 48 45" fill="none" xmlns="http://www.w3.org/2000/svg">
<rect y="0.556641" width="48" height="44.0985" fill="#323238"/>
<g clip-path="url(#clip0_61385_216)">
<path d="M22.724 33.6304C21.617 33.6304 20.324 33.6249 19.048 33.5579C17.1811 33.5964 15.3729 32.957 14.016 31.7783C12.7328 30.5322 12.0367 28.8712 12.079 27.1562C12 25.8305 12 24.4901 12 23.1938C12 22.9978 12 22.8018 12 22.6058C12 22.4098 12 22.2138 12 22.0178C12 20.7215 12 19.3811 12.079 18.0563C12.037 16.3411 12.733 14.6799 14.016 13.4333C15.3729 12.2546 17.1811 11.6152 19.048 11.6538C20.328 11.5867 21.617 11.5812 22.724 11.5812H25.277C26.384 11.5812 27.677 11.5867 28.954 11.6538C30.8207 11.6149 32.6286 12.2544 33.985 13.4333C35.268 14.6799 35.964 16.3411 35.922 18.0563C36 19.3811 36 20.7215 36 22.0187C36 22.2147 36 22.4107 36 22.6067C36 22.8027 36 22.9984 36 23.1938C36 24.4901 36 25.8305 35.921 27.1571C35.9633 28.8721 35.2672 30.5331 33.984 31.7792C32.6276 32.9581 30.8197 33.5976 28.953 33.5588C27.672 33.6258 26.383 33.6313 25.276 33.6313L22.724 33.6304Z" fill="white"/>
<path d="M29.6061 17.818C29.8425 17.9632 30.1206 18.0407 30.405 18.0407L30.406 18.0416C30.7873 18.0411 31.1528 17.9016 31.4222 17.6537C31.6916 17.4059 31.843 17.0699 31.843 16.7196C31.843 16.4583 31.7586 16.2028 31.6006 15.9856C31.4426 15.7683 31.218 15.599 30.9553 15.499C30.6925 15.399 30.4034 15.3728 30.1244 15.4238C29.8455 15.4748 29.5893 15.6006 29.3882 15.7854C29.1871 15.9701 29.0501 16.2055 28.9946 16.4618C28.9391 16.7181 28.9676 16.9837 29.0764 17.2251C29.1853 17.4665 29.3696 17.6729 29.6061 17.818Z" fill="#323238"/>
<path fill-rule="evenodd" clip-rule="evenodd" d="M24.0003 28.2611C22.7828 28.2609 21.5927 27.9291 20.5805 27.3075C19.5683 26.686 18.7794 25.8026 18.3136 24.7692C17.8478 23.7357 17.7261 22.5986 17.9637 21.5016C18.2013 20.4045 18.7877 19.3969 19.6487 18.606C20.5097 17.8152 21.6066 17.2766 22.8007 17.0585C23.9948 16.8403 25.2325 16.9524 26.3573 17.3805C27.4821 17.8085 28.4435 18.5334 29.1199 19.4635C29.7963 20.3935 30.1573 21.487 30.1573 22.6055C30.1557 24.1053 29.5065 25.5432 28.3522 26.6037C27.1979 27.6642 25.6327 28.2597 24.0003 28.2611ZM24.0002 18.9311C23.2091 18.9311 22.4357 19.1466 21.7779 19.5504C21.1202 19.9542 20.6075 20.5282 20.3047 21.1997C20.002 21.8712 19.9227 22.6101 20.0771 23.3229C20.2314 24.0358 20.6124 24.6906 21.1718 25.2045C21.7312 25.7184 22.4439 26.0684 23.2199 26.2102C23.9958 26.352 24.8001 26.2793 25.531 26.0011C26.2619 25.723 26.8866 25.252 27.3261 24.6476C27.7656 24.0433 28.0002 23.3328 28.0002 22.606C28.0002 21.6313 27.5788 20.6966 26.8287 20.0074C26.0785 19.3183 25.0611 18.9311 24.0002 18.9311Z" fill="#323238"/>
</g>
<defs>
<clipPath id="clip0_61385_216">
<rect width="24" height="22.0493" fill="white" transform="translate(12 11.5812)"/>
</clipPath>
</defs>
</svg>
