<svg width="48" height="45" viewBox="0 0 48 45" fill="none" xmlns="http://www.w3.org/2000/svg">
<rect y="0.556641" width="48" height="44.0985" fill="#323238"/>
<g clip-path="url(#clip0_61385_205)">
<path d="M36.6849 16.0328C35.7604 16.3916 34.7804 16.6283 33.777 16.7352C34.8352 16.1789 35.6271 15.3037 36.0048 14.2727C35.0116 14.7936 33.9235 15.1603 32.7883 15.3565C32.0948 14.7029 31.1931 14.2479 30.2008 14.051C29.2084 13.8541 28.1716 13.9244 27.2254 14.2528C26.2793 14.5811 25.4678 15.1522 24.8969 15.8916C24.3259 16.6311 24.022 17.5044 24.0249 18.3978C24.0229 18.7396 24.0668 19.0805 24.1557 19.4133C22.1397 19.3256 20.1674 18.8655 18.3677 18.063C16.568 17.2605 14.9813 16.1336 13.7112 14.7561C13.0632 15.7368 12.8653 16.8975 13.158 18.0019C13.4506 19.1062 14.2117 20.071 15.2861 20.6998C14.4786 20.6823 13.6883 20.4914 12.9842 20.1438V20.1991C12.9836 21.2274 13.3886 22.2242 14.1302 23.02C14.8718 23.8159 15.9044 24.3617 17.0524 24.5648C16.6174 24.6683 16.1688 24.7208 15.7181 24.7208C15.3986 24.7214 15.0798 24.6938 14.7665 24.6385C15.0901 25.5229 15.7205 26.2963 16.5695 26.8506C17.4184 27.4048 18.4435 27.7121 19.5012 27.7295C17.7066 28.9682 15.489 29.6399 13.2064 29.636C12.8025 29.6356 12.399 29.6142 11.998 29.572C14.3046 30.89 16.9986 31.5891 19.7505 31.5836C21.6488 31.5953 23.5308 31.2755 25.2872 30.6429C27.0435 30.0103 28.639 29.0774 29.9811 27.8985C31.3232 26.7195 32.3851 25.3181 33.105 23.7757C33.8248 22.2333 34.1883 20.5806 34.1744 18.9137C34.1744 18.7207 34.1744 18.5278 34.1583 18.3392C35.1498 17.7083 36.0054 16.9273 36.6849 16.0328V16.0328Z" fill="white"/>
</g>
<defs>
<clipPath id="clip0_61385_205">
<rect width="24.6857" height="17.6393" fill="white" transform="translate(12 13.9435)"/>
</clipPath>
</defs>
</svg>
