<svg width="48" height="45" viewBox="0 0 48 45" fill="none" xmlns="http://www.w3.org/2000/svg">
<rect y="0.556641" width="48" height="44.0985" fill="#323238"/>
<g clip-path="url(#clip0_61385_212)">
<path d="M36.5252 17.8385C36.5697 16.8937 36.219 15.9707 35.5499 15.272C34.8808 14.5732 33.9481 14.1559 32.9564 14.1114C30.285 13.9922 27.5608 13.9435 24.7783 13.9435H23.9108C21.1337 13.9435 18.4041 13.9897 15.7328 14.1114C14.7408 14.1589 13.8089 14.5786 13.1409 15.2788C12.473 15.9789 12.1233 16.9026 12.1683 17.8478C12.0484 19.4862 11.9947 21.118 12 22.7539C12.0052 24.3899 12.0484 26.0241 12.1639 27.6643C12.1169 28.6108 12.4655 29.5366 13.1334 30.2389C13.8012 30.9412 14.734 31.3628 15.7275 31.4115C18.5337 31.5358 21.4132 31.5904 24.3402 31.5862C27.2719 31.5951 30.1428 31.5369 32.9528 31.4115C33.9464 31.3636 34.8796 30.9429 35.5483 30.2412C36.2169 29.5396 36.5666 28.6143 36.5208 27.6676C36.6363 26.0275 36.6892 24.3924 36.6848 22.7531C36.6942 21.1149 36.641 19.4767 36.5252 17.8385ZM21.9783 27.2595V18.2341L28.9705 22.7447L21.9783 27.2595Z" fill="white"/>
</g>
<defs>
<clipPath id="clip0_61385_212">
<rect width="24.6857" height="17.6393" fill="white" transform="translate(12 13.9435)"/>
</clipPath>
</defs>
</svg>
